# Blender v2.77 (sub 0) OBJ File: 'projekt.blend'
# www.blender.org
mtllib gallows.mtl
o Sibenice_Cube.003
v -1.851712 0.472014 0.648461
v -1.851712 0.756163 0.648461
v -2.894717 0.472014 3.702702
v -2.894717 0.756163 3.702702
v -5.637075 0.472014 -0.644218
v -5.637075 0.756163 -0.644218
v -6.680081 0.472014 2.410023
v -6.680081 0.756163 2.410023
v -3.462522 0.756163 3.508800
v -3.462522 0.472014 3.508800
v -2.419516 0.756163 0.454559
v -2.419516 0.472014 0.454559
v -3.784277 0.756163 3.398922
v -2.741272 0.472014 0.344681
v -3.784277 0.472014 3.398922
v -2.741272 0.756163 0.344681
v -5.736609 0.756163 2.732213
v -4.693604 0.472014 -0.322029
v -5.736609 0.472014 2.732213
v -4.693604 0.756163 -0.322029
v -5.409664 0.472014 2.843863
v -4.366659 0.756163 -0.210379
v -5.409664 0.756163 2.843863
v -4.366659 0.472014 -0.210379
v -2.164104 0.756163 1.563243
v -2.164104 0.472014 1.563243
v -5.949469 0.756163 0.270564
v -5.949469 0.472014 0.270564
v -2.731909 0.756163 1.369341
v -2.731909 0.472014 1.369341
v -3.053665 0.756163 1.259463
v -3.053665 0.472014 1.259463
v -5.005997 0.756163 0.592754
v -5.005997 0.472014 0.592754
v -4.679051 0.472014 0.704404
v -4.679051 0.756163 0.704404
v -2.270244 0.756163 1.874051
v -6.055608 0.472014 0.581372
v -2.270244 0.472014 1.874051
v -6.055608 0.756163 0.581372
v -2.838048 0.756163 1.680149
v -2.838048 0.472014 1.680149
v -3.159804 0.756163 1.570271
v -3.159804 0.472014 1.570271
v -5.112136 0.756163 0.903562
v -5.112136 0.472014 0.903562
v -4.785191 0.472014 1.015212
v -4.785191 0.756163 1.015212
v -2.492854 0.756163 2.525924
v -6.278218 0.472014 1.233245
v -2.492854 0.472014 2.525924
v -6.278218 0.756163 1.233245
v -3.060659 0.756163 2.332022
v -3.060659 0.472014 2.332022
v -3.382415 0.756163 2.222144
v -3.382415 0.472014 2.222144
v -5.334747 0.756163 1.555435
v -5.334747 0.472014 1.555435
v -5.007801 0.472014 1.667085
v -5.007801 0.756163 1.667085
v -2.597799 0.756163 2.833236
v -6.383163 0.472014 1.540556
v -2.597799 0.472014 2.833236
v -6.383163 0.756163 1.540556
v -3.165604 0.756163 2.639334
v -3.165604 0.472014 2.639334
v -3.487360 0.756163 2.529456
v -3.487360 0.472014 2.529456
v -5.439692 0.756163 1.862746
v -5.439692 0.472014 1.862746
v -5.112746 0.472014 1.974396
v -5.112746 0.756163 1.974396
v -2.838048 -0.243837 1.680149
v -2.731909 -0.243837 1.369341
v -3.159804 -0.243837 1.570271
v -3.053665 -0.243837 1.259463
v -5.112136 -0.243837 0.903562
v -5.005997 -0.243837 0.592754
v -4.785191 -0.243837 1.015212
v -4.679051 -0.243837 0.704404
v -3.165604 -0.243837 2.639334
v -3.060659 -0.243837 2.332022
v -3.487360 -0.243837 2.529456
v -3.382415 -0.243837 2.222144
v -5.439692 -0.243837 1.862746
v -5.334747 -0.243837 1.555435
v -5.112746 -0.243837 1.974396
v -5.007801 -0.243837 1.667085
v -3.271110 0.756163 1.896208
v -4.896496 0.756163 1.341148
v -3.972497 0.756163 1.292742
v -4.195108 0.756163 1.944615
v -4.083803 0.756163 1.618678
v -2.603824 0.507782 2.850985
v -2.603824 0.758078 2.850985
v -2.142539 0.507782 1.500200
v -2.142539 0.758078 1.500200
v -2.225288 0.507782 2.980253
v -2.225288 0.758078 2.980253
v -1.764003 0.507782 1.629468
v -1.764003 0.758078 1.629468
v -2.603824 0.259487 2.850985
v -2.603824 0.509783 2.850985
v -2.142539 0.259487 1.500200
v -2.142539 0.509783 1.500200
v -2.225288 0.259487 2.980253
v -2.225288 0.509783 2.980253
v -1.764003 0.259487 1.629468
v -1.764003 0.509783 1.629468
v -2.225288 0.259487 2.980253
v -2.225288 0.509783 2.980253
v -1.764003 0.259487 1.629468
v -1.764003 0.509783 1.629468
v -1.846751 0.259487 3.109520
v -1.846751 0.509783 3.109520
v -1.385466 0.259487 1.758736
v -1.385466 0.509783 1.758736
v -2.603824 0.008782 2.850985
v -2.603824 0.259078 2.850985
v -2.142539 0.008782 1.500200
v -2.142539 0.259078 1.500200
v -2.225288 0.008782 2.980253
v -2.225288 0.259078 2.980253
v -1.764003 0.008782 1.629468
v -1.764003 0.259078 1.629468
v -2.225288 0.008782 2.980253
v -2.225288 0.259078 2.980253
v -1.764003 0.008782 1.629468
v -1.764003 0.259078 1.629468
v -1.846751 0.008782 3.109520
v -1.846751 0.259078 3.109520
v -1.385466 0.008782 1.758736
v -1.385466 0.259078 1.758736
v -1.846751 0.008782 3.109520
v -1.846751 0.259078 3.109520
v -1.385466 0.008782 1.758736
v -1.385466 0.259078 1.758736
v -1.468215 0.008782 3.238789
v -1.468215 0.259078 3.238789
v -1.006930 0.008782 1.888004
v -1.006930 0.259078 1.888004
v -2.603824 -0.241923 2.850985
v -2.603824 0.008373 2.850985
v -2.142539 -0.241923 1.500200
v -2.142539 0.008373 1.500200
v -2.225288 -0.241923 2.980253
v -2.225288 0.008373 2.980253
v -1.764003 -0.241923 1.629468
v -1.764003 0.008373 1.629468
v -2.225288 -0.241923 2.980253
v -2.225288 0.008373 2.980253
v -1.764003 -0.241923 1.629468
v -1.764003 0.008373 1.629468
v -1.846751 -0.241923 3.109520
v -1.846751 0.008373 3.109520
v -1.385466 -0.241923 1.758736
v -1.385466 0.008373 1.758736
v -1.846751 -0.241923 3.109520
v -1.846751 0.008373 3.109520
v -1.385466 -0.241923 1.758736
v -1.385466 0.008373 1.758736
v -1.468215 -0.241923 3.238789
v -1.468215 0.008373 3.238789
v -1.006930 -0.241923 1.888004
v -1.006930 0.008373 1.888004
v -1.468215 -0.241923 3.238789
v -1.468215 0.008373 3.238789
v -1.006930 -0.241923 1.888004
v -1.006930 0.008373 1.888004
v -1.089679 -0.241923 3.368056
v -1.089679 0.008373 3.368056
v -0.628394 -0.241923 2.017272
v -0.628394 0.008373 2.017272
v -5.413430 0.757431 0.978860
v -5.413430 3.314041 0.978860
v -5.510381 0.757431 1.262763
v -5.510381 3.314041 1.262763
v -5.697332 0.757431 0.881909
v -5.697332 3.314041 0.881909
v -5.794283 0.757431 1.165812
v -5.794283 3.314041 1.165812
v -5.696938 3.314147 0.882044
v -3.984360 3.314148 1.466879
v -5.793889 3.314147 1.165946
v -4.081311 3.314148 1.750781
v -5.696938 3.569808 0.882044
v -3.984360 3.569809 1.466879
v -5.793889 3.569808 1.165946
v -4.081311 3.569809 1.750781
v -5.426584 2.784749 0.975127
v -4.606764 3.377973 1.255091
v -4.703251 3.377973 1.537633
v -5.523071 2.784749 1.257669
v -5.514757 3.153226 1.260509
v -5.418270 3.153226 0.977966
v -4.609918 3.382840 1.254014
v -5.123847 3.366271 1.078510
v -4.706404 3.382839 1.536556
v -5.220334 3.366271 1.361052
vt 0.444986 0.498652
vt 0.444986 0.039269
vt 0.302911 0.039269
vt 0.302911 0.498652
vt 0.897012 0.139169
vt 0.897012 0.002737
vt 0.935897 0.002737
vt 0.935897 0.139169
vt 0.085981 0.864979
vt 0.085981 0.997263
vt 0.047096 0.997263
vt 0.047096 0.864979
vt 0.629574 0.249840
vt 0.518281 0.488564
vt 0.405225 0.488564
vt 0.405225 0.249840
vt 0.128468 0.139169
vt 0.002737 0.139169
vt 0.002737 0.002737
vt 0.128468 0.002737
vt 0.301178 0.185921
vt 0.012840 0.185921
vt 0.012840 -0.002378
vt 0.301178 -0.002378
vt 0.301178 0.292624
vt 0.012840 0.292624
vt 0.128468 0.550126
vt 0.002737 0.550126
vt 0.002737 0.468017
vt 0.128468 0.468017
vt 0.629574 0.114563
vt 0.405225 0.114563
vt 0.897012 0.550126
vt 0.897012 0.468017
vt 0.935897 0.468017
vt 0.935897 0.550126
vt 0.629574 0.226943
vt 0.629574 0.910309
vt 0.405225 0.910309
vt 0.405225 0.226943
vt 0.301178 0.831645
vt 0.012840 0.831645
vt 0.002737 0.421489
vt 0.128468 0.421489
vt 0.897012 0.421489
vt 0.935897 0.421489
vt 0.301178 1.252949
vt 0.012840 1.252949
vt 0.012840 0.940069
vt 0.301178 0.940069
vt 0.629574 0.488563
vt 0.629574 0.885230
vt 0.405225 0.885230
vt 0.405225 0.488563
vt 0.128468 0.186448
vt 0.002737 0.186448
vt 0.897012 0.186448
vt 0.935897 0.186448
vt 0.629574 0.089484
vt 0.405225 0.089484
vt 1.025707 0.940069
vt 0.722341 0.940069
vt 0.722341 0.831645
vt 1.025707 0.831645
vt 0.444400 0.421489
vt 0.312117 0.421489
vt 0.312117 0.186448
vt 0.444400 0.186448
vt 0.312117 0.139169
vt 0.444400 0.139169
vt 1.025708 1.252949
vt 0.722341 1.252949
vt 0.444400 0.468017
vt 0.312117 0.468017
vt 0.722341 0.292624
vt 1.025708 0.292624
vt 0.444400 0.550126
vt 0.312117 0.550126
vt 0.722341 0.185921
vt 1.025708 0.185921
vt 0.722341 -0.002378
vt 1.025708 -0.002378
vt 0.312117 0.002737
vt 0.444400 0.002737
vt 0.085981 0.820035
vt 0.047096 0.820035
vt 0.444986 0.652980
vt 0.444986 0.169654
vt 0.302911 0.169654
vt 0.302911 0.652980
vt 0.085981 0.725769
vt 0.047096 0.725769
vt 0.619269 0.940069
vt 0.619269 0.831645
vt 0.267172 0.421489
vt 0.267172 0.186448
vt 0.191281 0.659036
vt 0.235720 0.659036
vt 0.235720 0.756998
vt 0.191281 0.756998
vt 0.619269 1.252949
vt 0.302464 0.555600
vt 0.348992 0.555600
vt 0.348992 0.653562
vt 0.302464 0.653562
vt 0.619269 0.562135
vt 0.619269 0.292624
vt 0.267172 0.550126
vt 0.267172 0.468017
vt 0.619269 0.185921
vt 0.619269 -0.002378
vt 0.267172 0.139169
vt 0.267172 0.002737
vt 0.444986 0.005438
vt 0.302911 0.005438
vt 0.085981 0.681330
vt 0.047096 0.681330
vt 0.403091 0.940069
vt 0.403091 0.831645
vt 0.511180 0.831645
vt 0.172907 0.421489
vt 0.172907 0.186448
vt 0.172907 0.139169
vt 0.403091 1.252949
vt 0.172907 0.468017
vt 0.511180 0.562135
vt 0.403091 0.562135
vt 0.403091 0.292624
vt 0.511180 0.292624
vt 0.172907 0.550126
vt 0.403091 0.185921
vt 0.403091 -0.002378
vt 0.172907 0.002737
vt 0.444985 1.005438
vt 0.444986 0.661020
vt 0.302911 0.661020
vt 0.302911 1.005438
vt 0.085981 0.555600
vt 0.047096 0.555600
vt 0.656255 0.653562
vt 0.611310 0.653562
vt 0.611310 0.555600
vt 0.656255 0.555600
vt 0.144207 0.555600
vt 0.191486 0.555600
vt 0.191486 0.653562
vt 0.144207 0.653562
vt 0.286139 0.706314
vt 0.241194 0.706314
vt 0.241194 0.659036
vt 0.286139 0.659036
vt 0.341526 0.659036
vt 0.386471 0.659036
vt 0.386471 0.705564
vt 0.341526 0.705564
vt 0.291613 0.659036
vt 0.336052 0.659036
vt 0.336052 0.706314
vt 0.291613 0.706314
vt 0.391945 0.659036
vt 0.436384 0.659036
vt 0.436384 0.705564
vt 0.391945 0.705564
vt 0.458470 0.555600
vt 0.504998 0.555600
vt 0.504998 0.653562
vt 0.458470 0.653562
vt 0.706673 0.653562
vt 0.661729 0.653562
vt 0.661729 0.555600
vt 0.706673 0.555600
vt 0.244238 0.653562
vt 0.196960 0.653562
vt 0.196960 0.555600
vt 0.244238 0.555600
vt 0.510472 0.555600
vt 0.555417 0.555600
vt 0.555417 0.653562
vt 0.510472 0.653562
vt 0.135894 0.756998
vt 0.091455 0.756998
vt 0.091455 0.659036
vt 0.135894 0.659036
vt 0.091455 0.555600
vt 0.138733 0.555600
vt 0.138733 0.653562
vt 0.091455 0.653562
vt 0.400994 0.653562
vt 0.354466 0.653562
vt 0.354466 0.555600
vt 0.400994 0.555600
vt 0.560891 0.555600
vt 0.605836 0.555600
vt 0.605836 0.653562
vt 0.560891 0.653562
vt 0.756587 0.653562
vt 0.712147 0.653562
vt 0.712147 0.555600
vt 0.756587 0.555600
vt 0.296990 0.653562
vt 0.249712 0.653562
vt 0.249712 0.555600
vt 0.296990 0.555600
vt 0.406468 0.555600
vt 0.452996 0.555600
vt 0.452996 0.653562
vt 0.406468 0.653562
vt 0.141368 0.659036
vt 0.185807 0.659036
vt 0.185807 0.756998
vt 0.141368 0.756998
vt 0.000000 0.000000
vt 1.000000 0.000000
vt 1.000000 1.000000
vt 0.000000 1.000000
vt 0.989972 0.004780
vt 0.989972 0.204780
vt 0.864824 0.204780
vt 0.864824 0.004780
vt 0.481512 1.002646
vt 0.481512 0.002646
vt 0.888882 0.007937
vt 0.888882 1.007937
vt 0.000000 0.000000
vt 1.000000 0.000000
vt 1.000000 1.000000
vt 0.000000 1.000000
vt 0.000000 0.000000
vt 1.000000 0.000000
vt 1.000000 1.000000
vt 0.182551 1.000000
vt 0.182551 -0.000000
vt 0.468221 -0.005291
vt 0.468221 0.994709
vt 0.000000 0.000000
vt 1.000000 0.000000
vt 1.000000 1.000000
vt 0.000000 1.000000
vt 0.754507 0.478554
vt 0.754507 0.678554
vt 0.629359 0.678554
vt 0.629359 0.478554
vt 0.000000 0.000000
vt 1.000000 0.000000
vt 1.000000 1.000000
vt 0.000000 1.000000
vt 0.000000 0.000000
vt 1.000000 0.000000
vt 1.000000 1.000000
vt 0.000000 1.000000
vt 0.000000 0.000000
vt 1.000000 0.000000
vt 1.000000 1.000000
vt 1.000000 0.000000
vt 1.000000 1.000000
vt 0.000000 1.000000
vt 0.000000 0.000000
vt 1.000000 0.000000
vt 1.000000 1.000000
vt 0.000000 1.000000
vt 0.752932 0.679624
vt 0.752932 0.879625
vt 0.627784 0.879625
vt 0.627784 0.679624
vt -0.000000 1.000000
vt 0.000000 -0.000000
vt 0.208945 -0.002646
vt 0.208945 0.997354
vt 1.000000 0.000000
vt 1.000000 1.000000
vt 0.000000 1.000000
vt 0.000000 0.000000
vt 1.000000 0.000000
vt 1.000000 1.000000
vt -0.000000 1.000000
vt 0.000000 -0.000000
vt 0.267150 -0.002646
vt 0.267150 0.997354
vt 0.000000 0.000000
vt 1.000000 0.000000
vt 1.000000 1.000000
vt 0.000000 1.000000
vt 0.386759 0.324099
vt 0.386759 0.524099
vt 0.261611 0.524099
vt 0.261611 0.324099
vt 0.000000 0.000000
vt 1.000000 0.000000
vt 1.000000 1.000000
vt 0.000000 1.000000
vt 0.000000 0.000000
vt 1.000000 0.000000
vt 1.000000 1.000000
vt 0.000000 1.000000
vt 0.000000 0.000000
vt 1.000000 0.000000
vt 1.000000 1.000000
vt 1.000000 0.000000
vt 1.000000 1.000000
vt 0.000000 1.000000
vt 0.000000 0.000000
vt 1.000000 0.000000
vt 1.000000 1.000000
vt 0.000000 1.000000
vt 0.390476 0.530461
vt 0.390476 0.730461
vt 0.265328 0.730461
vt 0.265328 0.530461
vt 0.000000 0.000000
vt 1.000000 0.000000
vt 1.000000 1.000000
vt 0.000000 1.000000
vt 0.000000 0.000000
vt 1.000000 0.000000
vt 1.000000 1.000000
vt 0.000000 1.000000
vt 0.000000 0.000000
vt 1.000000 0.000000
vt 1.000000 1.000000
vt 1.000000 0.000000
vt 1.000000 1.000000
vt 0.000000 1.000000
vt 0.000000 0.000000
vt 1.000000 0.000000
vt 1.000000 1.000000
vt 0.000000 1.000000
vt 0.388838 0.736823
vt 0.388838 0.936823
vt 0.263690 0.936823
vt 0.263690 0.736823
vt -0.000000 1.000000
vt 0.000000 -0.000000
vt 0.211591 0.002646
vt 0.211591 1.002646
vt 1.000000 0.000000
vt 1.000000 1.000000
vt 0.000000 1.000000
vt 0.000000 0.000000
vt 1.000000 0.000000
vt 1.000000 1.000000
vt 0.711685 1.000000
vt 0.711685 -0.000000
vt 1.000000 1.000000
vt 0.000000 0.000000
vt 1.000000 0.000000
vt 1.000000 1.000000
vt 0.000000 1.000000
vt 0.198197 0.288215
vt 0.198197 0.447057
vt 0.003559 0.447057
vt 0.003559 0.288215
vt 0.000000 0.000000
vt 1.000000 0.000000
vt 1.000000 1.000000
vt 0.000000 1.000000
vt 0.000000 0.000000
vt 1.000000 0.000000
vt 1.000000 1.000000
vt 0.000000 1.000000
vt 0.000000 0.000000
vt 1.000000 0.000000
vt 1.000000 1.000000
vt 1.000000 0.000000
vt 1.000000 1.000000
vt 0.000000 1.000000
vt 0.000000 0.000000
vt 1.000000 0.000000
vt 1.000000 1.000000
vt 0.000000 1.000000
vt 0.195551 0.452348
vt 0.195551 0.611190
vt 0.000914 0.611190
vt 0.000914 0.452348
vt 0.000000 0.000000
vt 1.000000 0.000000
vt 1.000000 1.000000
vt 0.000000 1.000000
vt 0.000000 0.000000
vt 1.000000 0.000000
vt 1.000000 1.000000
vt 0.000000 1.000000
vt 0.000000 0.000000
vt 1.000000 0.000000
vt 1.000000 1.000000
vt 1.000000 0.000000
vt 1.000000 1.000000
vt 0.000000 1.000000
vt 0.000000 0.000000
vt 1.000000 0.000000
vt 1.000000 1.000000
vt 0.000000 1.000000
vt 0.198197 0.613326
vt 0.198197 0.772168
vt 0.003559 0.772168
vt 0.003559 0.613326
vt 0.000000 0.000000
vt 1.000000 0.000000
vt 1.000000 1.000000
vt 0.000000 1.000000
vt 0.000000 0.000000
vt 1.000000 0.000000
vt 1.000000 1.000000
vt 0.000000 1.000000
vt 0.000000 0.000000
vt 1.000000 0.000000
vt 1.000000 1.000000
vt 1.000000 0.000000
vt 1.000000 1.000000
vt 0.000000 1.000000
vt 0.000000 0.000000
vt 1.000000 0.000000
vt 1.000000 1.000000
vt 0.000000 1.000000
vt 0.198197 0.777460
vt 0.200843 0.991861
vt 0.006205 0.991861
vt 0.003559 0.777460
vt 0.632315 0.989417
vt 0.632315 -0.010583
vt 1.000000 0.000000
vt 1.000000 1.000000
vt 0.000000 0.000000
vt 1.000000 0.000000
vt 1.000000 1.000000
vt 0.000000 1.000000
vt 0.000000 0.000000
vt 1.000000 0.000000
vt 0.727559 0.571402
vt 0.724913 -0.000000
vt 1.002646 0.571402
vt 0.000000 0.000000
vt 0.200000 0.000000
vt 0.200000 1.000000
vt 0.000000 1.000000
vt 0.400000 1.000000
vt 0.200000 1.000000
vt 0.200000 0.000000
vt 0.400000 0.000000
vt 0.800000 1.000000
vt 0.600000 1.000000
vt 0.600000 0.000000
vt 0.800000 0.000000
vt 0.752105 0.356353
vt 0.880058 0.356353
vt 0.880058 0.862272
vt 0.752105 0.862272
vt 0.800000 0.234686
vt 0.800000 0.117343
vt 1.000000 0.117343
vt 1.000000 0.234686
vt 1.000000 0.000000
vt 1.000000 0.117343
vt 0.800000 0.117343
vt 0.800000 0.000000
vt 0.219462 0.000000
vt 0.438923 0.000000
vt 0.438923 1.000000
vt 0.219462 1.000000
vt 0.625949 0.000000
vt 0.812974 0.000000
vt 0.812974 1.000000
vt 0.625949 1.000000
vt 0.219462 1.000000
vt 0.000000 1.000000
vt 0.000000 0.000000
vt 0.219461 0.000000
vt 0.438923 0.000000
vt 0.625949 0.000000
vt 0.625949 1.000000
vt 0.438923 1.000000
vt 1.000000 0.000000
vt 1.000000 0.165775
vt 0.812974 0.165775
vt 0.812974 0.000000
vt 0.812974 0.331550
vt 0.812974 0.165775
vt 1.000000 0.165775
vt 1.000000 0.331550
vt 0.746526 0.000000
vt 0.746526 0.838716
vt 0.497962 0.838716
vt 0.497962 0.000000
vt 0.746526 1.000000
vt 0.746526 0.705572
vt 0.995090 0.705572
vt 0.995090 1.000000
vt 0.125737 0.478333
vt 0.207314 0.456667
vt 0.150647 0.657049
vt 0.053333 0.651620
vt 0.055000 0.515411
vt 0.995090 0.000000
vt 1.000000 0.000000
vt 1.000000 0.238496
vt 0.995090 0.238496
vt 0.248981 0.473304
vt 0.248981 0.172096
vt 0.493051 0.838716
vt 0.746526 0.289061
vt 0.746526 0.000000
vt 0.995090 0.000000
vt 0.995090 0.289061
vt 0.995090 0.705571
vt 0.746526 0.705572
vn 0.946300 0.000000 0.323200
vn -0.323200 0.000000 0.946300
vn -0.946300 0.000000 -0.323200
vn 0.323200 0.000000 -0.946300
vn 0.000000 -1.000000 -0.000000
vn 0.000000 1.000000 0.000000
vn 0.534700 -0.825100 0.182600
vn -0.946100 0.023800 -0.323100
vn 0.780800 0.565000 0.266600
vn -0.534700 0.825100 -0.182600
vn -0.028900 0.999500 -0.009900
usemtl Sibenice
s off
f 61/1/1 4/2/1 3/3/1 63/4/1
f 17/5/2 8/6/2 7/7/2 19/8/2
f 27/9/3 6/10/3 5/11/3 28/12/3
f 11/13/4 2/14/4 1/15/4 12/16/4
f 70/17/5 19/18/5 7/19/5 62/20/5
f 65/21/6 9/22/6 4/23/6 61/24/6
f 67/25/6 13/26/6 9/22/6 65/21/6
f 63/27/5 3/28/5 10/29/5 66/30/5
f 16/31/4 11/13/4 12/16/4 14/32/4
f 4/33/2 9/34/2 10/35/2 3/36/2
f 22/37/4 16/38/4 14/39/4 24/40/4
f 72/41/6 23/42/6 13/26/6 67/25/6
f 66/30/5 10/29/5 15/43/5 68/44/5
f 9/34/2 13/45/2 15/46/2 10/35/2
f 64/47/6 8/48/6 17/49/6 69/50/6
f 6/51/4 20/52/4 18/53/4 5/54/4
f 71/55/5 21/56/5 19/18/5 70/17/5
f 23/57/2 17/5/2 19/8/2 21/58/2
f 13/45/2 23/57/2 21/58/2 15/46/2
f 68/44/5 15/43/5 21/56/5 71/55/5
f 69/50/6 17/49/6 23/42/6 72/41/6
f 20/59/4 22/37/4 24/40/4 18/60/4
f 20/61/6 33/62/6 36/63/6 22/64/6
f 14/65/5 32/66/5 35/67/5 24/68/5
f 24/68/5 35/67/5 34/69/5 18/70/5
f 6/71/6 27/72/6 33/62/6 20/61/6
f 12/73/5 30/74/5 32/66/5 14/65/5
f 22/64/6 36/63/6 31/75/6 16/76/6
f 1/77/5 26/78/5 30/74/5 12/73/5
f 16/76/6 31/75/6 29/79/6 11/80/6
f 11/80/6 29/79/6 25/81/6 2/82/6
f 18/70/5 34/69/5 28/83/5 5/84/5
f 40/85/3 27/9/3 28/12/3 38/86/3
f 2/87/1 25/88/1 26/89/1 1/90/1
f 52/91/3 40/85/3 38/86/3 50/92/3
f 33/62/6 45/93/6 48/94/6 36/63/6
f 32/66/5 44/95/5 47/96/5 35/67/5
f 54/97/1 66/98/1 81/99/1 82/100/1
f 27/72/6 40/101/6 45/93/6 33/62/6
f 66/102/2 68/103/2 83/104/2 81/105/2
f 36/63/6 48/94/6 91/106/6 43/107/6 31/75/6
f 26/78/5 39/108/5 42/109/5 30/74/5
f 31/75/6 43/107/6 41/110/6 29/79/6
f 29/79/6 41/110/6 37/111/6 25/81/6
f 34/69/5 46/112/5 38/113/5 28/83/5
f 25/88/1 37/114/1 39/115/1 26/89/1
f 64/116/3 52/91/3 50/92/3 62/117/3
f 45/93/6 57/118/6 60/119/6 90/120/6 48/94/6
f 44/95/5 56/121/5 59/122/5 47/96/5
f 47/96/5 59/122/5 58/123/5 46/112/5
f 40/101/6 52/124/6 57/118/6 45/93/6
f 42/109/5 54/125/5 56/121/5 44/95/5
f 93/126/6 92/127/6 55/128/6 89/129/6
f 39/108/5 51/130/5 54/125/5 42/109/5
f 43/107/6 89/129/6 55/128/6 53/131/6 41/110/6
f 41/110/6 53/131/6 49/132/6 37/111/6
f 46/112/5 58/123/5 50/133/5 38/113/5
f 37/134/1 49/135/1 51/136/1 39/137/1
f 8/138/3 64/116/3 62/117/3 7/139/3
f 57/118/6 69/50/6 72/41/6 60/119/6
f 56/121/5 68/44/5 71/55/5 59/122/5
f 44/140/3 32/141/3 76/142/3 75/143/3
f 52/124/6 64/47/6 69/50/6 57/118/6
f 34/144/4 35/145/4 80/146/4 78/147/4
f 60/119/6 72/41/6 67/25/6 55/128/6 92/127/6
f 51/130/5 63/27/5 66/30/5 54/125/5
f 55/128/6 67/25/6 65/21/6 53/131/6
f 53/131/6 65/21/6 61/24/6 49/132/6
f 58/123/5 70/17/5 62/20/5 50/133/5
f 49/135/1 61/1/1 63/4/1 51/136/1
f 80/148/5 79/149/5 77/150/5 78/151/5
f 74/152/5 73/153/5 75/154/5 76/155/5
f 88/156/5 87/157/5 85/158/5 86/159/5
f 82/160/5 81/161/5 83/162/5 84/163/5
f 32/164/4 30/165/4 74/166/4 76/167/4
f 46/168/3 34/169/3 78/170/3 77/171/3
f 47/172/2 46/173/2 77/174/2 79/175/2
f 35/176/1 47/177/1 79/178/1 80/179/1
f 68/180/3 56/181/3 84/182/3 83/183/3
f 58/184/4 59/185/4 88/186/4 86/187/4
f 42/188/2 44/189/2 75/190/2 73/191/2
f 30/192/1 42/193/1 73/194/1 74/195/1
f 70/196/3 58/197/3 86/198/3 85/199/3
f 71/200/2 70/201/2 85/202/2 87/203/2
f 56/204/4 54/205/4 82/206/4 84/207/4
f 59/208/1 71/209/1 87/210/1 88/211/1
f 91/106/6 93/126/6 89/129/6 43/107/6
f 48/94/6 90/120/6 93/126/6 91/106/6
f 90/120/6 60/119/6 92/127/6 93/126/6
f 95/212/3 97/213/3 96/214/3 94/215/3
f 97/216/4 101/217/4 100/218/4 96/219/4
f 101/220/1 99/221/1 98/222/1 100/223/1
f 99/224/2 95/225/2 94/226/2 98/227/2
f 94/228/5 96/229/5 100/230/5 98/227/5
f 99/231/6 101/232/6 97/233/6 95/234/6
f 103/235/3 105/236/3 104/237/3 102/238/3
f 105/239/4 109/240/4 108/241/4 104/242/4
f 109/243/1 107/244/1 106/245/1 108/246/1
f 107/247/2 103/248/2 102/249/2 106/250/2
f 102/251/5 104/252/5 108/253/5 106/250/5
f 107/247/6 109/254/6 105/255/6 103/256/6
f 111/257/3 113/258/3 112/259/3 110/260/3
f 113/261/4 117/262/4 116/263/4 112/264/4
f 117/265/1 115/266/1 114/267/1 116/268/1
f 115/266/2 111/269/2 110/270/2 114/271/2
f 110/272/5 112/273/5 116/274/5 114/271/5
f 115/275/6 117/276/6 113/277/6 111/278/6
f 119/279/3 121/280/3 120/281/3 118/282/3
f 121/283/4 125/284/4 124/285/4 120/286/4
f 125/287/1 123/288/1 122/289/1 124/290/1
f 123/291/2 119/292/2 118/293/2 122/294/2
f 118/295/5 120/296/5 124/297/5 122/294/5
f 123/291/6 125/298/6 121/299/6 119/300/6
f 127/301/3 129/302/3 128/303/3 126/304/3
f 129/305/4 133/306/4 132/307/4 128/308/4
f 133/309/1 131/310/1 130/311/1 132/312/1
f 131/313/2 127/314/2 126/315/2 130/316/2
f 126/317/5 128/318/5 132/319/5 130/316/5
f 131/313/6 133/320/6 129/321/6 127/322/6
f 135/323/3 137/324/3 136/325/3 134/326/3
f 137/327/4 141/328/4 140/329/4 136/330/4
f 141/331/1 139/332/1 138/333/1 140/334/1
f 139/332/2 135/335/2 134/336/2 138/337/2
f 134/338/5 136/339/5 140/340/5 138/337/5
f 139/341/6 141/342/6 137/324/6 135/343/6
f 143/344/3 145/345/3 144/346/3 142/347/3
f 145/348/4 149/349/4 148/350/4 144/351/4
f 149/352/1 147/353/1 146/354/1 148/355/1
f 147/356/2 143/357/2 142/358/2 146/359/2
f 142/360/5 144/361/5 148/362/5 146/359/5
f 147/356/6 149/363/6 145/364/6 143/365/6
f 151/366/3 153/367/3 152/368/3 150/369/3
f 153/370/4 157/371/4 156/372/4 152/373/4
f 157/374/1 155/375/1 154/376/1 156/377/1
f 155/378/2 151/379/2 150/380/2 154/381/2
f 150/382/5 152/383/5 156/384/5 154/381/5
f 155/378/6 157/385/6 153/386/6 151/387/6
f 159/388/3 161/389/3 160/390/3 158/391/3
f 161/392/4 165/393/4 164/394/4 160/395/4
f 165/396/1 163/397/1 162/398/1 164/399/1
f 163/400/2 159/401/2 158/402/2 162/403/2
f 158/404/5 160/405/5 164/406/5 162/403/5
f 163/400/6 165/407/6 161/408/6 159/409/6
f 167/410/3 169/411/3 168/412/3 166/413/3
f 169/414/4 173/415/4 172/416/4 168/417/4
f 173/418/1 171/419/1 170/420/1 172/421/1
f 171/422/2 167/423/2 166/424/2 170/425/2
f 166/426/5 168/427/5 172/421/5 170/425/5
f 171/428/6 173/429/6 169/411/6 167/430/6
f 175/431/1 177/432/1 176/433/1 174/434/1
f 177/435/2 181/436/2 180/437/2 176/438/2
f 181/439/3 179/440/3 178/441/3 180/442/3
f 179/443/4 175/444/4 174/445/4 178/446/4
f 174/447/5 176/448/5 180/449/5 178/450/5
f 179/451/6 181/452/6 177/453/6 175/454/6
f 183/455/5 185/456/5 184/457/5 182/458/5
f 185/459/2 189/460/2 188/461/2 184/462/2
f 189/463/6 187/464/6 186/465/6 188/466/6
f 187/467/4 183/468/4 182/469/4 186/470/4
f 182/471/3 184/472/3 188/473/3 186/474/3
f 187/475/1 189/476/1 185/477/1 183/478/1
f 190/479/7 191/480/7 192/481/7 193/482/7
f 193/483/8 194/484/8 195/485/8 190/486/8
f 196/487/4 191/488/4 190/489/4 195/490/4 197/491/4
f 198/492/9 192/493/9 191/494/9 196/495/9
f 199/496/2 194/497/2 193/482/2 192/481/2 198/498/2
f 197/499/10 195/500/10 194/501/10 199/502/10
f 197/499/11 199/502/11 198/503/11 196/504/11
