# Blender v2.76 (sub 0) OBJ File: 'CastleWall2.blend'
# www.blender.org
mtllib CastleWall5.mtl
o Cube
v 8.000000 0.000000 -2.009614
v 8.000000 0.000000 1.990386
v -8.000000 0.000000 1.990386
v -8.000000 0.000000 -2.009614
v 8.000000 7.000000 -2.009614
v 8.000000 7.000000 1.990386
v -8.000000 7.000000 1.990386
v -8.000000 7.000000 -2.009614
v 8.000000 0.000000 0.990386
v -8.000000 0.000000 0.990386
v 8.000000 7.000000 0.990386
v -8.000000 7.000000 0.990386
v 6.400000 0.000000 -2.009614
v 4.800000 0.000000 -2.009614
v 3.200000 0.000000 -2.009614
v 1.600000 0.000000 -2.009614
v 0.000000 0.000000 -2.009614
v -1.600000 0.000000 -2.009614
v -3.200000 0.000000 -2.009614
v -4.800000 0.000000 -2.009614
v -6.400000 0.000000 -2.009614
v 6.400000 0.000000 1.990386
v 4.800000 0.000000 1.990386
v 3.200000 0.000000 1.990386
v 1.600000 0.000000 1.990386
v 0.000000 0.000000 1.990386
v -1.600000 0.000000 1.990386
v -3.200000 0.000000 1.990386
v -4.800000 0.000000 1.990386
v -6.400000 0.000000 1.990386
v 6.400000 7.000000 -2.009614
v 4.800000 7.000000 -2.009614
v 3.200000 7.000000 -2.009614
v 1.600000 7.000000 -2.009614
v 0.000000 7.000000 -2.009614
v -1.600000 7.000000 -2.009614
v -3.200000 7.000000 -2.009614
v -4.800000 7.000000 -2.009614
v -6.400000 7.000000 -2.009614
v 6.400000 7.000000 1.990386
v 4.800000 7.000000 1.990386
v 3.200000 7.000000 1.990386
v 1.600000 7.000000 1.990386
v 0.000000 7.000000 1.990386
v -1.600000 7.000000 1.990386
v -3.200000 7.000000 1.990386
v -4.800000 7.000000 1.990386
v -6.400000 7.000000 1.990386
v -6.400000 7.000000 0.990386
v -4.800000 7.000000 0.990386
v -3.200000 7.000000 0.990386
v -1.600000 7.000000 0.990386
v 0.000000 7.000000 0.990386
v 1.600000 7.000000 0.990386
v 3.200000 7.000000 0.990386
v 4.800000 7.000000 0.990386
v 6.400000 7.000000 0.990386
v 6.400000 0.000000 0.990386
v 4.800000 0.000000 0.990386
v 3.200000 0.000000 0.990386
v 1.600000 0.000000 0.990386
v 0.000000 0.000000 0.990386
v -1.600000 0.000000 0.990386
v -3.200000 0.000000 0.990386
v -4.800000 0.000000 0.990386
v -6.400000 0.000000 0.990386
v 8.000000 8.000000 0.990386
v 8.000000 8.000000 1.990386
v -6.400000 8.000000 1.990386
v -8.000000 8.000000 1.990386
v -8.000000 8.000000 0.990386
v 6.400000 8.000000 0.990386
v 6.400000 8.000000 1.990386
v 4.800000 8.000000 1.990386
v 3.200000 8.000000 1.990386
v 1.600000 8.000000 1.990386
v 0.000000 8.000000 1.990386
v -1.600000 8.000000 1.990386
v -3.200000 8.000000 1.990386
v -4.800000 8.000000 1.990386
v -6.400000 8.000000 0.990386
v -4.800000 8.000000 0.990386
v -3.200000 8.000000 0.990386
v -1.600000 8.000000 0.990386
v 0.000000 8.000000 0.990386
v 1.600000 8.000000 0.990386
v 3.200000 8.000000 0.990386
v 4.800000 8.000000 0.990386
v 8.000000 9.000000 0.990386
v 8.000000 9.000000 1.990386
v 6.400000 9.000000 0.990386
v 6.400000 9.000000 1.990386
v 4.800000 9.000000 1.990386
v 3.200000 9.000000 1.990386
v 1.600000 9.000000 1.990386
v 0.000000 9.000000 1.990386
v -1.600000 9.000000 1.990386
v -3.200000 9.000000 1.990386
v -4.800000 9.000000 1.990386
v -6.400000 9.000000 1.990386
v -6.400000 9.000000 0.990386
v -4.800000 9.000000 0.990386
v -3.200000 9.000000 0.990386
v -1.600000 9.000000 0.990386
v 0.000000 9.000000 0.990386
v 1.600000 9.000000 0.990386
v 3.200000 9.000000 0.990386
v 4.800000 9.000000 0.990386
vt 0.760000 0.576000
vt 0.800000 0.576000
vt 0.800000 0.640000
vt 0.760000 0.640000
vt 0.920000 0.320000
vt 0.920000 0.256000
vt 0.960000 0.256000
vt 0.960000 0.320000
vt 0.120000 1.000000
vt 0.120000 0.720000
vt 0.160000 0.720000
vt 0.160000 1.000000
vt 0.000000 0.576000
vt 0.280000 0.576000
vt 0.280000 0.640000
vt 0.000000 0.640000
vt 0.200000 0.960000
vt 0.200000 0.680000
vt 0.320000 0.680000
vt 0.320000 0.960000
vt 0.640000 0.064000
vt 0.360000 0.064000
vt 0.360000 0.000000
vt 0.640000 0.000000
vt 0.160000 0.960000
vt 0.160000 0.680000
vt 0.000000 1.000000
vt 0.000000 0.720000
vt 0.920000 0.576000
vt 0.920000 0.640000
vt 0.640000 0.576000
vt 0.640000 0.640000
vt 0.760000 0.000000
vt 0.760000 0.064000
vt 0.760000 0.128000
vt 0.640000 0.128000
vt 0.760000 0.192000
vt 0.640000 0.192000
vt 0.760000 0.256000
vt 0.640000 0.256000
vt 0.760000 0.320000
vt 0.640000 0.320000
vt 0.760000 0.384000
vt 0.640000 0.384000
vt 0.760000 0.448000
vt 0.640000 0.448000
vt 0.760000 0.512000
vt 0.640000 0.512000
vt 0.920000 0.000000
vt 0.920000 0.064000
vt 0.800000 0.064000
vt 0.800000 0.000000
vt 0.920000 0.128000
vt 0.800000 0.128000
vt 0.920000 0.192000
vt 0.800000 0.192000
vt 0.800000 0.256000
vt 0.800000 0.320000
vt 0.920000 0.384000
vt 0.800000 0.384000
vt 0.920000 0.448000
vt 0.800000 0.448000
vt 0.920000 0.512000
vt 0.800000 0.512000
vt 0.360000 0.640000
vt 0.360000 0.576000
vt 0.360000 0.512000
vt 0.360000 0.448000
vt 0.360000 0.384000
vt 0.360000 0.320000
vt 0.360000 0.256000
vt 0.360000 0.192000
vt 0.360000 0.128000
vt 0.000000 0.000000
vt 0.280000 0.000000
vt 0.280000 0.064000
vt 0.000000 0.064000
vt 0.280000 0.128000
vt 0.000000 0.128000
vt 0.280000 0.192000
vt 0.000000 0.192000
vt 0.280000 0.256000
vt 0.000000 0.256000
vt 0.280000 0.320000
vt 0.000000 0.320000
vt 0.280000 0.384000
vt 0.000000 0.384000
vt 0.280000 0.448000
vt 0.000000 0.448000
vt 0.280000 0.512000
vt 0.000000 0.512000
vt 0.120000 0.680000
vt 0.320000 0.320000
vt 0.320000 0.384000
vt 0.160000 0.640000
vt 0.200000 0.640000
vt 0.960000 0.192000
vt 0.320000 0.256000
vt 0.960000 0.128000
vt 0.320000 0.192000
vt 0.960000 0.064000
vt 0.960000 0.512000
vt 0.960000 0.576000
vt 0.520000 0.640000
vt 0.520000 0.704000
vt 0.480000 0.704000
vt 0.480000 0.640000
vt 0.400000 0.704000
vt 0.400000 0.744000
vt 0.360000 0.744000
vt 0.360000 0.704000
vt 0.720000 0.640000
vt 0.720000 0.704000
vt 0.680000 0.704000
vt 0.680000 0.640000
vt 0.960000 0.384000
vt 1.000000 0.320000
vt 1.000000 0.384000
vt 0.320000 0.704000
vt 0.320000 0.640000
vt 0.960000 0.640000
vt 1.000000 0.576000
vt 1.000000 0.640000
vt 0.400000 0.640000
vt 0.560000 0.704000
vt 0.600000 0.704000
vt 0.600000 0.744000
vt 0.560000 0.744000
vt 0.440000 0.704000
vt 0.440000 0.640000
vt 0.320000 0.448000
vt 0.320000 0.512000
vt 0.320000 0.576000
vt 0.320000 0.000000
vt 0.320000 0.064000
vt 0.960000 0.448000
vt 0.320000 0.128000
vt 0.960000 0.000000
vt 0.600000 0.640000
vt 0.560000 0.640000
vt 0.640000 0.704000
vt 0.320000 0.744000
vt 1.000000 0.448000
vt 1.000000 0.512000
vt 0.520000 0.744000
vt 1.000000 0.064000
vt 1.000000 0.128000
vt 0.480000 0.744000
vt 0.640000 0.744000
vt 0.120000 0.640000
vt 0.680000 0.744000
vt 0.440000 0.744000
vt 1.000000 0.192000
vt 1.000000 0.256000
vn 0.000000 -1.000000 0.000000
vn 0.000000 0.000000 -1.000000
vn 1.000000 0.000000 0.000000
vn 0.000000 0.000000 1.000000
vn -1.000000 0.000000 0.000000
vn 0.000000 1.000000 0.000000
usemtl WallMat
s off
f 66/1/1 30/2/1 3/3/1 10/4/1
f 53/5/2 52/6/2 84/7/2 85/8/2
f 9/9/3 11/10/3 6/11/3 2/12/3
f 30/13/4 48/14/4 7/15/4 3/16/4
f 10/17/5 12/18/5 8/19/5 4/20/5
f 39/21/2 21/22/2 4/23/2 8/24/2
f 3/25/5 7/26/5 12/18/5 10/17/5
f 1/27/3 5/28/3 11/10/3 9/9/3
f 39/29/6 8/30/6 12/3/6 49/2/6
f 21/31/1 66/1/1 10/4/1 4/32/1
f 1/24/1 9/33/1 58/34/1 13/21/1
f 13/21/1 58/34/1 59/35/1 14/36/1
f 14/36/1 59/35/1 60/37/1 15/38/1
f 15/38/1 60/37/1 61/39/1 16/40/1
f 16/40/1 61/39/1 62/41/1 17/42/1
f 17/42/1 62/41/1 63/43/1 18/44/1
f 18/44/1 63/43/1 64/45/1 19/46/1
f 19/46/1 64/45/1 65/47/1 20/48/1
f 20/48/1 65/47/1 66/1/1 21/31/1
f 5/49/6 31/50/6 57/51/6 11/52/6
f 31/50/6 32/53/6 56/54/6 57/51/6
f 32/53/6 33/55/6 55/56/6 56/54/6
f 33/55/6 34/6/6 54/57/6 55/56/6
f 34/6/6 35/5/6 53/58/6 54/57/6
f 35/5/6 36/59/6 52/60/6 53/58/6
f 36/59/6 37/61/6 51/62/6 52/60/6
f 37/61/6 38/63/6 50/64/6 51/62/6
f 38/63/6 39/29/6 49/2/6 50/64/6
f 5/32/2 1/65/2 13/66/2 31/31/2
f 31/31/2 13/66/2 14/67/2 32/48/2
f 32/48/2 14/67/2 15/68/2 33/46/2
f 33/46/2 15/68/2 16/69/2 34/44/2
f 34/44/2 16/69/2 17/70/2 35/42/2
f 35/42/2 17/70/2 18/71/2 36/40/2
f 36/40/2 18/71/2 19/72/2 37/38/2
f 37/38/2 19/72/2 20/73/2 38/36/2
f 38/36/2 20/73/2 21/22/2 39/21/2
f 2/74/4 6/75/4 40/76/4 22/77/4
f 22/77/4 40/76/4 41/78/4 23/79/4
f 23/79/4 41/78/4 42/80/4 24/81/4
f 24/81/4 42/80/4 43/82/4 25/83/4
f 25/83/4 43/82/4 44/84/4 26/85/4
f 26/85/4 44/84/4 45/86/4 27/87/4
f 27/87/4 45/86/4 46/88/4 28/89/4
f 28/89/4 46/88/4 47/90/4 29/91/4
f 29/91/4 47/90/4 48/14/4 30/13/4
f 6/11/3 11/10/3 67/92/3 68/26/3
f 45/86/4 44/84/4 77/93/4 78/94/4
f 12/18/5 7/26/5 70/95/5 71/96/5
f 52/6/2 51/55/2 83/97/2 84/7/2
f 44/84/4 43/82/4 76/98/4 77/93/4
f 51/55/2 50/53/2 82/99/2 83/97/2
f 43/82/4 42/80/4 75/100/4 76/98/4
f 50/53/2 49/50/2 81/101/2 82/99/2
f 57/29/2 56/63/2 88/102/2 72/103/2
f 9/33/1 2/52/1 22/51/1 58/34/1
f 58/34/1 22/51/1 23/54/1 59/35/1
f 59/35/1 23/54/1 24/56/1 60/37/1
f 60/37/1 24/56/1 25/57/1 61/39/1
f 61/39/1 25/57/1 26/58/1 62/41/1
f 62/41/1 26/58/1 27/60/1 63/43/1
f 63/43/1 27/60/1 28/62/1 64/45/1
f 64/45/1 28/62/1 29/64/1 65/47/1
f 65/47/1 29/64/1 30/2/1 66/1/1
f 81/104/6 71/105/6 70/106/6 69/107/6
f 85/108/5 77/109/5 96/110/5 105/111/5
f 72/112/6 88/113/6 74/114/6 73/115/6
f 86/116/2 85/8/2 105/117/2 106/118/2
f 87/65/6 86/111/6 76/119/6 75/120/6
f 67/121/2 72/103/2 91/122/2 89/123/2
f 85/124/6 84/108/6 78/111/6 77/65/6
f 76/125/3 86/126/3 106/127/3 95/128/3
f 83/107/6 82/106/6 80/129/6 79/130/6
f 79/131/4 78/94/4 97/69/4 98/68/4
f 46/88/4 45/86/4 78/94/4 79/131/4
f 54/59/2 53/5/2 85/8/2 86/116/2
f 47/90/4 46/88/4 79/131/4 80/132/4
f 7/15/4 48/14/4 69/133/4 70/120/4
f 40/76/4 6/75/4 68/134/4 73/135/4
f 55/61/2 54/59/2 86/116/2 87/136/2
f 11/30/2 57/29/2 72/103/2 67/121/2
f 48/14/4 47/90/4 80/132/4 69/133/4
f 41/78/4 40/76/4 73/135/4 74/137/4
f 56/63/2 55/61/2 87/136/2 88/102/2
f 49/50/2 12/49/2 71/138/2 81/101/2
f 42/80/4 41/78/4 74/137/4 75/100/4
f 89/139/6 91/126/6 92/125/6 90/140/6
f 108/130/6 107/129/6 94/108/6 93/124/6
f 106/105/6 105/104/6 96/140/6 95/125/6
f 104/141/6 103/32/6 98/115/6 97/114/6
f 102/32/6 101/141/6 100/126/6 99/139/6
f 73/135/4 68/134/4 90/23/4 92/22/4
f 69/133/4 80/132/4 99/67/4 100/66/4
f 78/111/3 84/110/3 104/142/3 97/119/3
f 88/102/2 87/136/2 107/143/2 108/144/2
f 83/125/5 79/128/5 98/145/5 103/105/5
f 75/100/4 74/137/4 93/73/4 94/72/4
f 82/99/2 81/101/2 101/146/2 102/147/2
f 80/106/3 82/105/3 102/145/3 99/148/3
f 72/141/5 73/149/5 92/127/5 91/126/5
f 68/26/3 67/92/3 89/150/3 90/95/3
f 81/114/5 69/151/5 100/149/5 101/141/5
f 77/93/4 76/98/4 95/71/4 96/70/4
f 74/129/3 88/106/3 108/148/3 93/152/3
f 84/7/2 83/97/2 103/153/2 104/154/2
f 87/108/5 75/129/5 94/152/5 107/109/5
